<svg xmlns="http://www.w3.org/2000/svg" width="28" height="28" viewBox="0 0 28 28">
    <g fill="none" fill-rule="evenodd">
        <g>
            <g transform="translate(-1148 -3153) translate(1148 3153)">
                <rect width="27" height="27" x=".5" y=".5" fill="#FFF" stroke="#BCB3AC" rx="13.5"/>
                <g fill="#8C8581" fill-rule="nonzero" stroke="#FFF" stroke-width=".3">
                    <path d="M8.98 6.05c-.032-.245-.097-.483-.192-.709l-.037-.083c-.144-.309-.346-.592-.602-.837l-.01-.011c-.11-.104-.224-.196-.345-.28L6.55 5.131c.19.066.352.191.502.333l.005.006c.26.248.401.58.4.933 0 .353-.145.684-.405.931l-3.115 2.713c-.538.512-1.448.512-1.986 0l-.006-.005c-.259-.249-.401-.58-.4-.934.001-.353.145-.683.406-.93L3.732 6.73c-.213-.452-.325-.947-.325-1.459 0-.112.006-.223.016-.334L.864 7.123C.307 7.653 0 8.359 0 9.113c0 .748.302 1.45.852 1.978l.012.011c1.146 1.09 3.012 1.09 4.16 0L8.137 8.39c.486-.462.782-1.06.849-1.705l.002-.017c.02-.205.017-.412-.01-.616" transform="translate(7.5 8)"/>
                    <path d="M12.07.828l-.01-.01c-1.147-1.09-3.013-1.09-4.16 0L5.042 3.282c-.557.53-.864 1.236-.864 1.99 0 .748.303 1.45.853 1.978l.011.01c.117.112.242.212.373.3l1.233-1.046c-.19-.063-.37-.166-.52-.308l-.005-.005c-.259-.249-.4-.58-.4-.933.001-.353.145-.684.406-.932l2.857-2.466c.539-.511 1.449-.511 1.987 0l.004.004c.26.25.403.582.401.935 0 .353-.144.684-.405.931L9.449 4.94c.213.452.325.947.325 1.459 0 .112-.005.223-.016.334l2.559-2.432c.435-.417.606-.74.606-1.494 0-.749-.303-1.451-.852-1.979" transform="translate(7.5 8)"/>
                </g>
            </g>
        </g>
    </g>
</svg>
