<svg xmlns="http://www.w3.org/2000/svg" width="24" height="24" viewBox="0 0 24 24">
    <g fill="none" fill-rule="evenodd">
        <g stroke="#6CAE7E">
            <g transform="translate(-836 -3326) translate(836 3326)">
                <circle cx="12" cy="12" r="11.5"/>
                <g>
                    <g>
                        <path stroke-linecap="round" stroke-linejoin="round" d="M3.3 9.4c.293.677.956 1.15 1.725 1.15.77 0 1.433-.473 1.726-1.15" transform="translate(6 6) translate(1 .75)"/>
                        <path d="M.472 8.34c-.172 0-.328-.112-.363-.274-.036-.161.04-.32.193-.388.036-.023.31-.208.583-.77.503-1.03.608-2.481.608-3.517C1.493 1.52 3.061 0 4.99 0c1.923 0 3.488 1.514 3.495 3.377v.014c0 1.036.106 2.487.609 3.518.273.56.547.746.583.77.153.068.229.226.193.387-.035.162-.191.274-.363.274H.472z" transform="translate(6 6) translate(1 .75)"/>
                    </g>
                </g>
            </g>
        </g>
    </g>
</svg>
