<svg xmlns="http://www.w3.org/2000/svg" width="16" height="16" viewBox="0 0 16 16">
    <g fill="none" fill-rule="evenodd">
        <g>
            <g>
                <g>
                    <path d="M0 0H16V16H0z" transform="translate(-894 -5911) translate(594 5895) translate(300 16)"/>
                    <path fill="#373738" d="M8.626 5.43l4.148 4.74c.182.209.161.524-.047.706-.09.08-.208.124-.329.124H4.102c-.276 0-.5-.224-.5-.5 0-.121.044-.238.124-.33l4.148-4.74c.182-.208.497-.229.705-.047.017.015.033.03.047.047z" transform="translate(-894 -5911) translate(594 5895) translate(300 16) matrix(1 0 0 -1 0 16)"/>
                </g>
            </g>
        </g>
    </g>
</svg>
