<svg xmlns="http://www.w3.org/2000/svg" width="80" height="80" viewBox="0 0 80 80">
    <g fill="none" fill-rule="evenodd">
        <g>
            <g>
                <g>
                    <path fill="#DF9CDF" d="M36 8c5.039 0 9.352 3.106 11.13 7.507 1.307-.643 2.794-1.007 4.37-1.007 3.95 0 7.337 2.284 8.77 5.534 1.008-.346 2.096-.534 3.23-.534 5.247 0 9.5 4.03 9.5 9s-4.253 9-9.5 9c-2.626 0-5.002-1.01-6.722-2.64C55.626 40.912 50.119 45.5 43.5 45.5c-6.279 0-11.556-4.127-13.066-9.718C28.152 38.65 24.55 40.5 20.5 40.5c-6.904 0-12.5-5.373-12.5-12s5.596-12 12.5-12c1.346 0 2.643.204 3.858.582C25.66 11.865 30.378 8 36 8z" transform="translate(-140 -160) translate(16 123) translate(124 37)"/>
                    <g>
                        <path d="M0 0H80V80H0z" transform="translate(-140 -160) translate(16 123) translate(124 37)"/>
                    </g>
                    <g fill="#262627" stroke="#262627" stroke-linejoin="round">
                        <path d="M21 0c4.185 2.421 7 6.945 7 12.127 0 7.732-6.268 14-14 14s-14-6.268-14-14C0 6.945 2.815 2.421 7 0v10.96h14z" transform="translate(-140 -160) translate(16 123) translate(124 37) rotate(-45 46.63 3.756)"/>
                        <path d="M19.833 22.627v36.167c0 3.221-2.611 5.833-5.833 5.833s-5.833-2.612-5.833-5.833V22.627h11.666zM14 55.294c-1.289 0-2.333 1.044-2.333 2.333 0 1.289 1.044 2.333 2.333 2.333 1.289 0 2.333-1.044 2.333-2.333 0-1.289-1.044-2.333-2.333-2.333z" transform="translate(-140 -160) translate(16 123) translate(124 37) rotate(-45 46.63 3.756)"/>
                    </g>
                </g>
            </g>
        </g>
    </g>
</svg>
