<svg xmlns="http://www.w3.org/2000/svg" width="25" height="24" viewBox="0 0 25 24">
    <g fill="none" fill-rule="evenodd" stroke-linejoin="round">
        <g stroke="#262627" stroke-width="1.5">
            <g>
                <g>
                    <path d="M21.992 5.698C21.836 2.528 19.269.024 16.202 0h-.045C13.323 0 11.743 1.99 11 3.333 10.258 1.99 8.678 0 5.843 0h-.045C2.731.024.165 2.527.008 5.698c-.191 3.89 3.053 6.501 7.898 10.45.84.684 1.733 1.412 2.67 2.197L11 18.7l.424-.355c.939-.785 1.83-1.513 2.67-2.196 4.845-3.95 8.09-6.56 7.898-10.45v-.001z" transform="translate(-225 -3153) translate(225.5 3153) translate(1 3)"/>
                </g>
            </g>
        </g>
    </g>
</svg>
