<svg xmlns="http://www.w3.org/2000/svg" width="16" height="16" viewBox="0 0 16 16">
    <g fill="none" fill-rule="evenodd">
        <g fill="#EC5454">
            <g>
                <g>
                    <path d="M15.994 4.266C15.88 1.891 14.014.018 11.783 0h-.032C9.69 0 8.54 1.49 8 2.495 7.46 1.49 6.311 0 4.25 0h-.033C1.987.018.12 1.892.006 4.266c-.14 2.912 2.22 4.867 5.744 7.823.61.512 1.26 1.057 1.941 1.645.178.153.44.153.618 0 .682-.588 1.33-1.133 1.941-1.645 3.524-2.957 5.884-4.91 5.744-7.823z" transform="translate(-318 -4442) translate(318 4442) translate(0 1)"/>
                </g>
            </g>
        </g>
    </g>
</svg>
