<svg xmlns="http://www.w3.org/2000/svg" width="16" height="16" viewBox="0 0 16 16">
    <defs>
        <filter id="eky9jttcka">
            <feColorMatrix in="SourceGraphic" values="0 0 0 0 1.000000 0 0 0 0 1.000000 0 0 0 0 1.000000 0 0 0 1.000000 0"/>
        </filter>
    </defs>
    <g fill="none" fill-rule="evenodd">
        <g>
            <g>
                <g>
                    <g>
                        <g filter="url(#eky9jttcka)" transform="translate(-198 -190) translate(140 132) translate(52 52) translate(6 6)">
                            <path d="M0 0L16 0 16 16 0 16z"/>
                        </g>
                        <g>
                            <path fill="#8C8581" stroke="#8C8581" stroke-linejoin="round" stroke-width="1.5" d="M10.111 0l.518 1.555H14v10.112H0V1.556l3.37-.001L3.889 0h6.222z" transform="translate(-198 -190) translate(140 132) translate(52 52) translate(6 6) translate(1 2)"/>
                            <path fill="#FFF" fill-rule="nonzero" d="M7 2.361c-2.132 0-3.861 1.729-3.861 3.861 0 2.133 1.729 3.861 3.861 3.861s3.861-1.728 3.861-3.86C10.861 4.09 9.132 2.36 7 2.36zm0 1.5c1.304 0 2.361 1.057 2.361 2.361 0 1.304-1.057 2.361-2.361 2.361-1.304 0-2.361-1.057-2.361-2.36C4.639 4.917 5.696 3.86 7 3.86z" transform="translate(-198 -190) translate(140 132) translate(52 52) translate(6 6) translate(1 2)"/>
                        </g>
                    </g>
                </g>
            </g>
        </g>
    </g>
</svg>
