<svg xmlns="http://www.w3.org/2000/svg" width="34" height="20" viewBox="0 0 34 20">
    <g fill="none" fill-rule="evenodd">
        <g>
            <g>
                <path fill="#CB1D23" d="M0 20L34 20 34 0 0 0z" transform="translate(-16 -222) translate(16 222)"/>
                <path fill="#F7DE29" d="M3.228 7.086L3.858 5.133 2.203 3.918 4.254 3.914 4.895 1.965 5.533 3.914 7.585 3.922 5.927 5.133 6.554 7.086 4.893 5.879zM8.95 8.141L9.644 8.422 10.126 7.848 10.074 8.594 10.767 8.875 10.042 9.059 9.988 9.797 9.591 9.168 8.867 9.344 9.345 8.774zM12.702 4.387L11.966 4.258 11.613 4.918 11.51 4.18 10.772 4.043 11.443 3.719 11.342 2.977 11.862 3.512 12.533 3.188 12.182 3.848zM11.141 7.731L11.369 7.019 10.766 6.579 11.514 6.579 11.745 5.867 11.977 6.579 12.725 6.579 12.122 7.019 12.349 7.731 11.745 7.293zM8.988 1.242L9.665 1.558 10.175 1.012 10.087 1.754 10.761 2.074 10.03 2.215 9.937 2.957 9.573 2.304 8.841 2.441 9.348 1.894z" transform="translate(-16 -222) translate(16 222)"/>
            </g>
        </g>
    </g>
</svg>
