<svg xmlns="http://www.w3.org/2000/svg" width="16" height="16" viewBox="0 0 16 16">
    <g fill="none" fill-rule="evenodd">
        <g>
            <g>
                <g>
                    <g>
                        <g>
                            <path d="M0 0L16 0 16 16 0 16z" transform="translate(-288 -200) translate(28 168) translate(0 32) translate(260)"/>
                        </g>
                        <g transform="translate(-288 -200) translate(28 168) translate(0 32) translate(260) translate(2.367 2)">
                            <path stroke="#BCB3AC" stroke-linejoin="round" d="M10.5 2.5V9c0 .69-.28 1.315-.732 1.768-.453.452-1.078.732-1.768.732h0-4c-.69 0-1.315-.28-1.768-.732C1.78 10.315 1.5 9.69 1.5 9h0V2.5h9z"/>
                            <rect width="12" height="1" y="2" fill="#BCB3AC" rx=".5"/>
                            <rect width="4" height="1" x="4" fill="#BCB3AC" rx=".5"/>
                            <g fill="#BCB3AC" transform="translate(4.111 3.667)">
                                <rect width="1" height="6" rx=".5"/>
                                <rect width="1" height="6" x="2.889" rx=".5"/>
                            </g>
                        </g>
                    </g>
                </g>
            </g>
        </g>
    </g>
</svg>
