<svg xmlns="http://www.w3.org/2000/svg" width="80" height="80" viewBox="0 0 80 80">
    <defs>
        <filter id="x8y4c9uoea">
            <feColorMatrix in="SourceGraphic" values="0 0 0 0 0.149020 0 0 0 0 0.149020 0 0 0 0 0.152941 0 0 0 1.000000 0"/>
        </filter>
    </defs>
    <g fill="none" fill-rule="evenodd">
        <g>
            <path fill="#FFF" d="M0 0H360V720H0z" transform="translate(-139 -251)"/>
            <g>
                <g>
                    <path d="M0 0H80V80H0z" transform="translate(-139 -251) translate(15 251) translate(124)"/>
                    <path fill="#DF9CDF" d="M38 7c5.039 0 9.352 3.106 11.13 7.507 1.307-.643 2.794-1.007 4.37-1.007 3.95 0 7.337 2.284 8.77 5.534 1.008-.346 2.096-.534 3.23-.534 5.247 0 9.5 4.03 9.5 9s-4.253 9-9.5 9c-2.626 0-5.002-1.01-6.722-2.64C57.626 39.912 52.119 44.5 45.5 44.5c-6.279 0-11.556-4.127-13.066-9.718C30.152 37.65 26.55 39.5 22.5 39.5c-6.904 0-12.5-5.373-12.5-12s5.596-12 12.5-12c1.346 0 2.643.204 3.858.582C27.66 10.865 32.378 7 38 7z" transform="translate(-139 -251) translate(15 251) translate(124)"/>
                    <g transform="translate(-139 -251) translate(15 251) translate(124) translate(7 20)">
                        <g stroke-linejoin="round" filter="url(#x8y4c9uoea)">
                            <g stroke="#262627" stroke-width="2">
                                <path fill="#262627" d="M5.333 13.333L37.333 13.333 42.667 50.667 0 50.667z" transform="translate(.667 .667)"/>
                                <path d="M13.333 13.333V8.115C13.47 2.705 16.113 0 21.266 0c5.154 0 7.842 2.705 8.067 8.115v5.218" transform="translate(.667 .667)"/>
                            </g>
                        </g>
                        <circle cx="14" cy="32" r="2" fill="#FFF"/>
                        <circle cx="22" cy="32" r="2" fill="#FFF"/>
                        <circle cx="30" cy="32" r="2" fill="#FFF"/>
                    </g>
                </g>
            </g>
        </g>
    </g>
</svg>
