<svg xmlns="http://www.w3.org/2000/svg" width="14" height="14" viewBox="0 0 14 14">
    <defs>
        <filter id="vhkv0cg17a">
            <feColorMatrix in="SourceGraphic" values="0 0 0 0 0.737255 0 0 0 0 0.701961 0 0 0 0 0.674510 0 0 0 1.000000 0"/>
        </filter>
    </defs>
    <g fill="none" fill-rule="evenodd">
        <g>
            <g>
                <g>
                    <g filter="url(#vhkv0cg17a)" transform="translate(-151 -514) translate(89 171) translate(50 336) translate(12 7)">
                        <path d="M0 0H14V14H0z"/>
                        <g fill="#FFF" fill-rule="nonzero">
                            <g>
                                <path d="M9.167 6.05c-.032-.245-.099-.483-.196-.709l-.038-.083c-.146-.309-.353-.592-.614-.837l-.011-.011c-.111-.104-.229-.196-.351-.28l-1.27 1.001c.193.066.359.191.512.333l.005.006c.265.248.41.58.409.933-.001.353-.148.684-.414.931l-3.18 2.713c-.55.512-1.478.512-2.028 0l-.005-.005c-.265-.249-.41-.58-.41-.934.002-.353.15-.683.415-.93L3.81 6.73c-.218-.452-.332-.947-.332-1.459 0-.112.006-.223.016-.334L.882 7.123C.313 7.653 0 8.359 0 9.113c0 .748.309 1.45.87 1.978l.012.011c1.17 1.09 3.075 1.09 4.246 0l3.18-2.713c.496-.462.798-1.06.866-1.705l.002-.017c.02-.205.018-.412-.01-.616" transform="translate(.25 1)"/>
                                <path d="M12.322.828l-.011-.01c-1.171-1.09-3.076-1.09-4.247 0L5.147 3.282c-.568.53-.881 1.236-.881 1.99 0 .748.309 1.45.87 1.978l.011.01c.12.112.247.212.38.3l1.26-1.046c-.195-.063-.378-.166-.53-.308l-.006-.005c-.264-.249-.41-.58-.409-.933.001-.353.149-.684.414-.932l2.917-2.466c.55-.511 1.479-.511 2.029 0l.004.004c.266.25.41.582.41.935-.001.353-.148.684-.414.931L9.646 4.94c.217.452.332.947.332 1.459 0 .112-.006.223-.017.334l2.612-2.432c.445-.417.62-.74.62-1.494 0-.749-.31-1.451-.87-1.979" transform="translate(.25 1)"/>
                            </g>
                        </g>
                    </g>
                </g>
            </g>
        </g>
    </g>
</svg>
