<svg xmlns="http://www.w3.org/2000/svg" width="80" height="80" viewBox="0 0 80 80">
    <defs>
        <filter id="9xlkca7osa">
            <feColorMatrix in="SourceGraphic" values="0 0 0 0 0.149020 0 0 0 0 0.149020 0 0 0 0 0.152941 0 0 0 1.000000 0"/>
        </filter>
    </defs>
    <g fill="none" fill-rule="evenodd">
        <g>
            <g>
                <g>
                    <g>
                        <g filter="url(#9xlkca7osa)" transform="translate(-140 -442) translate(-1 280) translate(122 162) translate(19)">
                            <path d="M0 0L24 0 24 24 0 24z"/>
                        </g>
                        <g>
                            <path d="M0 0H80V80H0z" transform="translate(-140 -442) translate(-1 280) translate(122 162) translate(19)"/>
                        </g>
                        <path fill="#DF9CDF" d="M40 7c5.039 0 9.352 3.106 11.13 7.507 1.307-.643 2.794-1.007 4.37-1.007 3.95 0 7.337 2.284 8.77 5.534 1.008-.346 2.096-.534 3.23-.534 5.247 0 9.5 4.03 9.5 9s-4.253 9-9.5 9c-2.626 0-5.002-1.01-6.722-2.64C59.626 39.912 54.119 44.5 47.5 44.5c-6.279 0-11.556-4.127-13.066-9.718C32.152 37.65 28.55 39.5 24.5 39.5c-6.904 0-12.5-5.373-12.5-12s5.596-12 12.5-12c1.346 0 2.643.204 3.858.582C29.66 10.865 34.378 7 40 7z" transform="translate(-140 -442) translate(-1 280) translate(122 162) translate(19)"/>
                        <g>
                            <g transform="translate(-140 -442) translate(-1 280) translate(122 162) translate(19) translate(3 26) translate(8.454 7.654)">
                                <circle cx="19.373" cy="19.373" r="18.373" fill="#262627" stroke="#262627" stroke-width="2"/>
                                <g fill="#FFF" transform="translate(9 17)">
                                    <circle cx="2" cy="2" r="2"/>
                                    <circle cx="10" cy="2" r="2"/>
                                    <circle cx="18" cy="2" r="2"/>
                                </g>
                            </g>
                            <path fill="#262627" stroke="#262627" stroke-linejoin="round" stroke-width="2" d="M15.529 5.681c-2.812-2.811-7.37-2.811-10.183 0-2.811 2.812-2.811 7.371 0 10.183L15.53 5.68zM40.255 5.681c2.812-2.811 7.37-2.811 10.182 0 2.812 2.812 2.812 7.371 0 10.183L40.255 5.68z" transform="translate(-140 -442) translate(-1 280) translate(122 162) translate(19) translate(3 26)"/>
                        </g>
                    </g>
                </g>
            </g>
        </g>
    </g>
</svg>
