<svg xmlns="http://www.w3.org/2000/svg" width="34" height="20" viewBox="0 0 34 20">
    <g fill="none" fill-rule="evenodd">
        <g>
            <g>
                <g>
                    <path fill="#FFF" stroke="#F0EEEB" d="M0 19.578L33.562 19.578 33.562 0 0 0z" transform="translate(-16 -110) translate(0 92) translate(16 18)"/>
                    <path fill="#000" d="M22.211 3.227L23.453 5.094 22.776 5.547 21.532 3.68zM23.68 5.434L24.927 7.301 24.247 7.75 23.002 5.887zM23.23 2.547L25.945 6.621 25.265 7.074 22.549 3zM24.247 1.867L25.492 3.738 24.812 4.187 23.567 2.32zM25.717 4.078L26.96 5.945 26.282 6.398 25.039 4.531zM9.315 11.824L12.03 15.894 11.351 16.347 8.636 12.277zM8.297 12.504L9.539 14.367 8.862 14.82 7.618 12.957zM9.768 14.711L11.011 16.578 10.333 17.031 9.089 15.164zM7.279 13.184L9.992 17.254 9.314 17.707 6.599 13.637zM8.636 7.301L11.351 3.227 12.03 3.68 9.315 7.75zM7.618 6.621L10.333 2.547 11.011 3 8.297 7.074zM6.6 5.945L9.315 1.867 9.993 2.32 7.28 6.398zM21.532 15.895L22.776 14.031 23.453 14.485 22.211 16.348zM23.002 13.695L24.247 11.824 24.927 12.277 23.68 14.144zM22.55 16.578L23.794 14.711 24.474 15.164 23.231 17.031zM24.021 14.367L25.266 12.504 25.946 12.957 24.701 14.82zM23.567 17.254L24.812 15.391 25.492 15.84 24.247 17.707zM25.039 15.051L26.282 13.184 26.96 13.637 25.717 15.5z" transform="translate(-16 -110) translate(0 92) translate(16 18)"/>
                    <g>
                        <path fill="#B50037" d="M1.709 2.496c-.019.023-.036.051-.052.082.018-.03.033-.059.052-.082" transform="translate(-16 -110) translate(0 92) translate(16 18) translate(11 4.578)"/>
                        <path fill="#B50037" d="M8.497 1.137C6.247-.363 3.208.25 1.71 2.496c-.752 1.12-.446 2.645.68 3.395 1.123.75 2.641.445 3.391-.68s2.27-1.426 3.394-.68c1.126.75 1.428 2.274.677 3.395 1.5-2.25.894-5.29-1.354-6.79" transform="translate(-16 -110) translate(0 92) translate(16 18) translate(11 4.578)"/>
                        <path fill="#1E3476" d="M1.709 2.496c-.752 1.121-.446 2.645.679 3.395 1.124.75 2.642.445 3.392-.68s2.27-1.426 3.394-.68c1.126.75 1.429 2.274.678 3.395-1.498 2.254-4.537 2.86-6.787 1.36-2.248-1.5-2.856-4.54-1.356-6.79" transform="translate(-16 -110) translate(0 92) translate(16 18) translate(11 4.578)"/>
                    </g>
                </g>
            </g>
        </g>
    </g>
</svg>
