<svg xmlns="http://www.w3.org/2000/svg" width="24" height="24" viewBox="0 0 24 24">
    <defs>
        <filter id="w1ntg5udoa">
            <feColorMatrix in="SourceGraphic" values="0 0 0 0 1.000000 0 0 0 0 1.000000 0 0 0 0 1.000000 0 0 0 1.000000 0"/>
        </filter>
    </defs>
    <g fill="none" fill-rule="evenodd">
        <g>
            <g>
                <g filter="url(#w1ntg5udoa)" transform="translate(-280 -56) translate(-.857 44) translate(280.857 12)">
                    <path d="M0 0H24V24H0z"/>
                    <g stroke="#FFF" stroke-width="2">
                        <g>
                            <path fill-rule="nonzero" d="M9.238.128L3.403 3.784H.825c-.456 0-.825.426-.825.952v4.67c0 .525.37.951.825.951h2.578l5.839 3.66c.395.261.9.102 1.126-.354.07-.145.108-.307.108-.473V.951c0-.34-.157-.653-.413-.823-.255-.17-.57-.17-.825 0z" transform="translate(2 5)"/>
                            <path stroke-linecap="round" stroke-linejoin="round" d="M14.762 3.143c2.095 2.156 2.095 4.6 0 7.333" transform="translate(2 5)"/>
                            <path stroke-linecap="round" d="M17.381 0c3.492 4.337 3.492 8.877 0 13.619" transform="translate(2 5)"/>
                        </g>
                    </g>
                </g>
            </g>
        </g>
    </g>
</svg>
