<svg xmlns="http://www.w3.org/2000/svg" width="36" height="36" viewBox="0 0 36 36">
    <g fill="none" fill-rule="evenodd">
        <g>
            <g>
                <g>
                    <g transform="translate(-327 -514) translate(0 315) translate(120 194) translate(207 5)">
                        <path fill="#FFF" fill-rule="nonzero" stroke="#8D8682" stroke-width=".3" d="M23.778 10H12.222c-.399 0-.722.323-.722.722v14.445c0 .262.142.504.372.631.23.128.51.12.733-.019L18 22.407l5.395 3.372c.223.14.503.147.733.02.23-.128.372-.37.372-.632V10.722c0-.399-.323-.722-.722-.722zm-.722 13.867l-4.673-2.921c-.234-.146-.532-.146-.766 0l-4.673 2.92V11.445h10.112v12.423z"/>
                        <circle cx="18" cy="18" r="17.5" stroke="#FFF"/>
                        <path fill="#FFF" d="M12.414 10.782L23.636 10.782 23.636 24.473 18.025 21.775 12.414 24.473z"/>
                    </g>
                </g>
            </g>
        </g>
    </g>
</svg>
