<svg xmlns="http://www.w3.org/2000/svg" width="16" height="16" viewBox="0 0 16 16">
    <g fill="none" fill-rule="evenodd" stroke-linejoin="round">
        <g fill="#6DC685" stroke="#6DC685" stroke-width="2">
            <path d="M13.996 6.02C13.91 4.339 12.51 3.012 10.837 3h-.024C9.267 3 8.405 4.054 8 4.766 7.595 4.054 6.734 3 5.187 3h-.024C3.49 3.012 2.09 4.34 2.004 6.02 1.9 8.081 3.67 9.464 6.312 11.557c.458.363.945.749 1.457 1.164L8 12.91l.231-.188c.512-.416.999-.802 1.456-1.164C12.331 9.465 14.1 8.08 13.996 6.02z" transform="translate(-958 -3161) translate(958 3161)"/>
        </g>
    </g>
</svg>
