<svg xmlns="http://www.w3.org/2000/svg" width="80" height="80" viewBox="0 0 80 80">
    <defs>
        <filter id="4r0vi5fcja">
            <feColorMatrix in="SourceGraphic" values="0 0 0 0 0.149020 0 0 0 0 0.149020 0 0 0 0 0.152941 0 0 0 1.000000 0"/>
        </filter>
    </defs>
    <g fill="none" fill-rule="evenodd">
        <g>
            <g>
                <g filter="url(#4r0vi5fcja)" transform="translate(-140 -219) translate(140 219)">
                    <path d="M0 0L24 0 24 24 0 24z"/>
                </g>
                <g>
                    <path d="M0 0H80V80H0z" transform="translate(-140 -219) translate(140 219)"/>
                </g>
                <g>
                    <path fill="#DF9CDF" stroke="#DF9CDF" stroke-linejoin="round" stroke-width="2" d="M58.99 35.563c-.2-3.922-3.466-7.018-7.37-7.046h-.057c-3.607 0-5.617 2.46-6.563 4.121-.945-1.661-2.955-4.121-6.563-4.121h-.057c-3.904.029-7.17 3.125-7.37 7.046-.243 4.81 3.885 8.037 10.052 12.921 1.069.846 2.205 1.746 3.398 2.716l.54.44.54-.44c1.195-.97 2.33-1.87 3.397-2.716 6.168-4.883 10.296-8.111 10.053-12.92z" transform="translate(-140 -219) translate(140 219) translate(11 16)"/>
                    <path fill="#262627" stroke="#262627" stroke-linejoin="round" stroke-width="2" d="M47.982 12.08C47.641 5.356 42.041.049 35.35 0h-.098C29.067 0 25.621 4.218 24 7.066 22.38 4.218 18.934 0 12.749 0h-.098C5.96.05.36 5.357.018 12.08-.4 20.324 6.677 25.858 17.25 34.23c1.832 1.45 3.779 2.992 5.824 4.656l.926.754.926-.754c2.048-1.663 3.993-3.205 5.824-4.656 10.573-8.372 17.65-13.905 17.232-22.15z" transform="translate(-140 -219) translate(140 219) translate(11 16)"/>
                    <g fill="#FFF" transform="translate(-140 -219) translate(140 219) translate(11 16) translate(14 16)">
                        <circle cx="2" cy="2" r="2"/>
                        <circle cx="10" cy="2" r="2"/>
                        <circle cx="18" cy="2" r="2"/>
                    </g>
                </g>
            </g>
        </g>
    </g>
</svg>
