<svg xmlns="http://www.w3.org/2000/svg" xmlns:xlink="http://www.w3.org/1999/xlink" width="24" height="24" viewBox="0 0 24 24">
    <defs>
        <filter id="hjb825svua">
            <feColorMatrix in="SourceGraphic" values="0 0 0 0 0.320312 0 0 0 0 0.306221 0 0 0 0 0.297784 0 0 0 1.000000 0"/>
        </filter>
        <path id="cmarlkqb9b" d="M0 0.027L20.528 0.027 20.528 18.885 0 18.885z"/>
    </defs>
    <g fill="none" fill-rule="evenodd">
        <g>
            <g>
                <g>
                    <g filter="url(#hjb825svua)" transform="translate(-196 -1380) translate(16 1360) translate(175 14)">
                        <g>
                            <path d="M0 0H24V24H0z" transform="translate(5 6)"/>
                        </g>
                    </g>
                    <path d="M0 0L34 0 34 34 0 34z" transform="translate(-196 -1380) translate(16 1360) translate(175 14)"/>
                    <g>
                        <g transform="translate(-196 -1380) translate(16 1360) translate(175 14) translate(7 8) translate(0 .178)">
                            <mask id="r9n79ycdmc" fill="#fff">
                                <use xlink:href="#cmarlkqb9b"/>
                            </mask>
                            <path fill="#524E4C" fill-rule="nonzero" d="M10.264.027C4.595.027-.001 3.66-.001 8.14c0 2.917 1.948 5.474 4.87 6.905-.215.801-.777 2.903-.89 3.353-.14.558.204.551.43.4.177-.117 2.812-1.91 3.95-2.683.617.092 1.254.14 1.905.14 5.669 0 10.264-3.633 10.264-8.114 0-4.481-4.595-8.114-10.264-8.114" mask="url(#r9n79ycdmc)"/>
                        </g>
                        <path fill="#FFF" fill-rule="nonzero" d="M6.412 6.347H3.158c-.627.001-.625 1.048.002 1.048h1.07s.006 2.917.001 3.601c.001.5 1.113.496 1.11-.003l.006-3.597H6.41c.666 0 .667-1.049.001-1.049m1.222 3.06l.646-1.865.595 1.865h-1.24zM8.92 6.668c-.16-.343-1.076-.507-1.306 0-.263.58-1.214 3.318-1.53 4.044-.228.525.756.953.984.428l.214-.749H9.24s-.067.031.193.717c.21.555 1.226.17 1.016-.385-.3-.794-1.34-3.65-1.53-4.055zm4.479 3.622c-.503 0-1.42-.006-1.42-.006s.004-2.774.003-3.448c-.002-.652-1.16-.65-1.158.004l.005 3.929s-.086.596.425.596 1.645-.005 2.148-.005c.503 0 .5-1.07-.003-1.07m4.355.306l-1.498-1.972s1.017-1.1 1.418-1.497c.234-.233-.49-.962-.724-.73l-1.819 1.82s.015-1.002 0-1.555c-.012-.435-1.104-.405-1.092.03.011.407-.013 4.097-.013 4.37 0 .432 1.099.43 1.098 0V9.61l.323-.259 1.41 1.925c.286.375 1.182-.303.897-.68" transform="translate(-196 -1380) translate(16 1360) translate(175 14) translate(7 8)"/>
                    </g>
                </g>
            </g>
        </g>
    </g>
</svg>
