<svg xmlns="http://www.w3.org/2000/svg" width="34" height="20" viewBox="0 0 34 20">
    <g fill="none" fill-rule="evenodd">
        <g>
            <g>
                <path fill="#CB001C" d="M0 19.578L34 19.578 34 18.072 0 18.072z" transform="translate(-16 -166) translate(16 166)"/>
                <path fill="#FFF" d="M0 18.072L33.565 18.072 33.565 16.566 0 16.566z" transform="translate(-16 -166) translate(16 166)"/>
                <path fill="#CB001C" d="M0 16.567L34 16.567 34 15.062 0 15.062z" transform="translate(-16 -166) translate(16 166)"/>
                <path fill="#FFF" d="M0 15.062L33.565 15.062 33.565 13.555 0 13.555z" transform="translate(-16 -166) translate(16 166)"/>
                <path fill="#CB001C" d="M0 13.555L34 13.555 34 12.048 0 12.048z" transform="translate(-16 -166) translate(16 166)"/>
                <path fill="#FFF" d="M0 12.049L33.565 12.049 33.565 10.544 0 10.544z" transform="translate(-16 -166) translate(16 166)"/>
                <path fill="#CB001C" d="M0 10.544L34 10.544 34 9.036 0 9.036z" transform="translate(-16 -166) translate(16 166)"/>
                <path fill="#FFF" d="M0 9.036L33.565 9.036 33.565 7.531 0 7.531z" transform="translate(-16 -166) translate(16 166)"/>
                <path fill="#CB001C" d="M0 7.532L34 7.532 34 6.025 0 6.025z" transform="translate(-16 -166) translate(16 166)"/>
                <path fill="#FFF" d="M0 6.025L33.565 6.025 33.565 4.518 0 4.518z" transform="translate(-16 -166) translate(16 166)"/>
                <path fill="#CB001C" d="M0 4.518L34 4.518 34 3.012 0 3.012z" transform="translate(-16 -166) translate(16 166)"/>
                <path fill="#FFF" d="M0 3.013L33.565 3.013 33.565 1.507 0 1.507z" transform="translate(-16 -166) translate(16 166)"/>
                <path fill="#CB001C" d="M0 1.507L34 1.507 34 0 0 0z" transform="translate(-16 -166) translate(16 166)"/>
                <path fill="#2A3560" d="M0 10.544L15.328 10.544 15.328 0 0 0z" transform="translate(-16 -166) translate(16 166)"/>
                <path fill="#FFF" d="M1.254 1.562L.838 1.562 1.178 1.808 1.045 2.206 1.385 1.96 1.725 2.206 1.596 1.808 1.936 1.562 1.516 1.562 1.385 1.162zM1.254 3.321L.838 3.321 1.178 3.566 1.045 3.966 1.385 3.72 1.725 3.966 1.596 3.566 1.936 3.321 1.516 3.321 1.385 2.922zM1.254 5.08L.838 5.08 1.178 5.327 1.045 5.725 1.385 5.479 1.725 5.725 1.596 5.327 1.936 5.08 1.516 5.08 1.385 4.682zM1.254 6.84L.838 6.84 1.178 7.087 1.045 7.484 1.385 7.239 1.725 7.484 1.596 7.087 1.936 6.84 1.516 6.84 1.385 6.441zM1.254 8.602L.838 8.602 1.178 8.846 1.045 9.245 1.385 8.998 1.725 9.245 1.596 8.846 1.936 8.602 1.516 8.602 1.385 8.201zM2.611 2.089L2.736 2.488 3.158 2.488 2.82 2.735 2.947 3.133 2.611 2.888 2.273 3.133 2.4 2.735 2.062 2.488 2.482 2.488zM2.611 3.85L2.736 4.247 3.158 4.247 2.82 4.495 2.947 4.892 2.611 4.648 2.273 4.892 2.4 4.495 2.062 4.247 2.482 4.247zM2.611 5.609L2.736 6.007 3.158 6.007 2.82 6.254 2.947 6.652 2.611 6.406 2.273 6.652 2.4 6.254 2.062 6.007 2.482 6.007zM2.611 7.37L2.736 7.767 3.158 7.767 2.82 8.014 2.947 8.411 2.611 8.164 2.273 8.411 2.4 8.014 2.062 7.767 2.482 7.767zM3.85 1.162L3.981 1.561 4.401 1.561 4.061 1.808 4.192 2.206 3.85 1.96 3.514 2.206 3.643 1.808 3.303 1.561 3.721 1.561zM3.85 2.923L3.981 3.32 4.401 3.32 4.061 3.566 4.192 3.966 3.85 3.719 3.514 3.966 3.643 3.566 3.303 3.32 3.721 3.32zM3.85 4.683L3.981 5.08 4.401 5.08 4.061 5.327 4.192 5.726 3.85 5.479 3.514 5.726 3.643 5.327 3.303 5.08 3.721 5.08zM3.85 6.441L3.981 6.84 4.401 6.84 4.061 7.087 4.192 7.484 3.85 7.239 3.514 7.484 3.643 7.087 3.303 6.84 3.721 6.84zM3.85 8.201L3.981 8.601 4.401 8.601 4.061 8.846 4.192 9.244 3.85 8.998 3.514 9.244 3.643 8.846 3.303 8.601 3.721 8.601zM5.076 2.089L5.205 2.488 5.627 2.488 5.285 2.735 5.416 3.133 5.076 2.888 4.738 3.133 4.869 2.735 4.527 2.488 4.947 2.488zM5.076 3.85L5.205 4.247 5.627 4.247 5.285 4.495 5.416 4.892 5.076 4.648 4.738 4.892 4.869 4.495 4.527 4.247 4.947 4.247zM5.076 5.609L5.205 6.007 5.627 6.007 5.285 6.254 5.416 6.652 5.076 6.406 4.738 6.652 4.869 6.254 4.527 6.007 4.947 6.007zM5.076 7.37L5.205 7.767 5.627 7.767 5.285 8.014 5.416 8.411 5.076 8.164 4.738 8.411 4.869 8.014 4.527 7.767 4.947 7.767zM6.318 1.162L6.449 1.561 6.865 1.561 6.525 1.808 6.66 2.206 6.318 1.96 5.978 2.206 6.107 1.808 5.771 1.561 6.189 1.561zM6.318 2.923L6.449 3.32 6.865 3.32 6.525 3.566 6.66 3.966 6.318 3.719 5.978 3.966 6.107 3.566 5.771 3.32 6.189 3.32zM6.318 4.683L6.449 5.08 6.865 5.08 6.525 5.327 6.66 5.726 6.318 5.479 5.978 5.726 6.107 5.327 5.771 5.08 6.189 5.08zM6.318 6.441L6.449 6.84 6.865 6.84 6.525 7.087 6.66 7.484 6.318 7.239 5.978 7.484 6.107 7.087 5.771 6.84 6.189 6.84zM6.318 8.201L6.449 8.601 6.865 8.601 6.525 8.846 6.66 9.244 6.318 8.998 5.978 9.244 6.107 8.846 5.771 8.601 6.189 8.601zM7.545 2.089L7.674 2.488 8.092 2.488 7.754 2.735 7.881 3.133 7.545 2.888 7.207 3.133 7.334 2.735 6.996 2.488 7.414 2.488zM7.545 3.85L7.674 4.247 8.092 4.247 7.754 4.495 7.881 4.892 7.545 4.648 7.207 4.892 7.334 4.495 6.996 4.247 7.414 4.247zM7.545 5.609L7.674 6.007 8.092 6.007 7.754 6.254 7.881 6.652 7.545 6.406 7.207 6.652 7.334 6.254 6.996 6.007 7.414 6.007zM7.545 7.37L7.674 7.767 8.092 7.767 7.754 8.014 7.881 8.411 7.545 8.164 7.207 8.411 7.334 8.014 6.996 7.767 7.414 7.767zM8.783 1.162L8.914 1.561 9.332 1.561 8.994 1.808 9.125 2.206 8.783 1.96 8.447 2.206 8.574 1.808 8.236 1.561 8.654 1.561zM8.783 2.923L8.914 3.32 9.332 3.32 8.994 3.566 9.125 3.966 8.783 3.719 8.447 3.966 8.574 3.566 8.236 3.32 8.654 3.32zM8.783 4.683L8.914 5.08 9.332 5.08 8.994 5.327 9.125 5.726 8.783 5.479 8.447 5.726 8.574 5.327 8.236 5.08 8.654 5.08zM8.783 6.441L8.914 6.84 9.332 6.84 8.994 7.087 9.125 7.484 8.783 7.239 8.447 7.484 8.574 7.087 8.236 6.84 8.654 6.84zM8.783 8.201L8.914 8.601 9.332 8.601 8.994 8.846 9.125 9.244 8.783 8.998 8.447 9.244 8.574 8.846 8.236 8.601 8.654 8.601zM10.01 2.089L10.139 2.488 10.561 2.488 10.221 2.735 10.35 3.133 10.01 2.888 9.672 3.133 9.803 2.735 9.463 2.488 9.883 2.488zM10.01 3.85L10.139 4.247 10.561 4.247 10.221 4.495 10.35 4.892 10.01 4.648 9.672 4.892 9.803 4.495 9.463 4.247 9.883 4.247zM10.01 5.609L10.139 6.007 10.561 6.007 10.221 6.254 10.35 6.652 10.01 6.406 9.672 6.652 9.803 6.254 9.463 6.007 9.883 6.007zM10.01 7.37L10.139 7.767 10.561 7.767 10.221 8.014 10.35 8.411 10.01 8.164 9.672 8.411 9.803 8.014 9.463 7.767 9.883 7.767zM11.252 1.162L11.383 1.561 11.801 1.561 11.463 1.808 11.59 2.206 11.252 1.96 10.916 2.206 11.043 1.808 10.705 1.561 11.123 1.561zM11.252 2.923L11.383 3.32 11.801 3.32 11.463 3.566 11.59 3.966 11.252 3.719 10.916 3.966 11.043 3.566 10.705 3.32 11.123 3.32zM11.252 4.683L11.383 5.08 11.801 5.08 11.463 5.327 11.59 5.726 11.252 5.479 10.916 5.726 11.043 5.327 10.705 5.08 11.123 5.08zM11.252 6.441L11.383 6.84 11.801 6.84 11.463 7.087 11.59 7.484 11.252 7.239 10.916 7.484 11.043 7.087 10.705 6.84 11.123 6.84zM11.252 8.201L11.383 8.601 11.801 8.601 11.463 8.846 11.59 9.244 11.252 8.998 10.916 9.244 11.043 8.846 10.705 8.601 11.123 8.601zM12.479 2.089L12.606 2.488 13.026 2.488 12.69 2.735 12.815 3.133 12.479 2.888 12.137 3.133 12.268 2.735 11.932 2.488 12.348 2.488zM12.479 3.85L12.606 4.247 13.026 4.247 12.69 4.495 12.815 4.892 12.479 4.648 12.137 4.892 12.268 4.495 11.932 4.247 12.348 4.247zM12.479 5.609L12.606 6.007 13.026 6.007 12.69 6.254 12.815 6.652 12.479 6.406 12.137 6.652 12.268 6.254 11.932 6.007 12.348 6.007zM12.479 7.37L12.606 7.767 13.026 7.767 12.69 8.014 12.815 8.411 12.479 8.164 12.137 8.411 12.268 8.014 11.932 7.767 12.348 7.767zM13.717 1.162L13.85 1.561 14.266 1.561 13.928 1.808 14.059 2.206 13.717 1.96 13.381 2.206 13.508 1.808 13.17 1.561 13.588 1.561zM13.717 2.923L13.85 3.32 14.266 3.32 13.928 3.566 14.059 3.966 13.717 3.719 13.381 3.966 13.508 3.566 13.17 3.32 13.588 3.32zM13.717 4.683L13.85 5.08 14.266 5.08 13.928 5.327 14.059 5.726 13.717 5.479 13.381 5.726 13.508 5.327 13.17 5.08 13.588 5.08zM13.717 6.441L13.85 6.84 14.266 6.84 13.928 7.087 14.059 7.484 13.717 7.239 13.381 7.484 13.508 7.087 13.17 6.84 13.588 6.84zM13.717 8.201L13.85 8.601 14.266 8.601 13.928 8.846 14.059 9.244 13.717 8.998 13.381 9.244 13.508 8.846 13.17 8.601 13.588 8.601z" transform="translate(-16 -166) translate(16 166)"/>
            </g>
        </g>
    </g>
</svg>
