<svg xmlns="http://www.w3.org/2000/svg" width="80" height="80" viewBox="0 0 80 80">
    <defs>
        <filter id="t1a20wp6va">
            <feColorMatrix in="SourceGraphic" values="0 0 0 0 0.149020 0 0 0 0 0.149020 0 0 0 0 0.152941 0 0 0 1.000000 0"/>
        </filter>
    </defs>
    <g fill="none" fill-rule="evenodd">
        <g>
            <g>
                <g filter="url(#t1a20wp6va)" transform="translate(-140 -219) translate(140 219)">
                    <path d="M0 0L24 0 24 24 0 24z"/>
                </g>
                <g>
                    <path d="M0 0H80V80H0z" transform="translate(-140 -219) translate(140 219)"/>
                </g>
                <path fill="#DF9CDF" d="M53 57.882l-5.735 9.548c-.284.474-.899.627-1.372.343-.377-.227-.562-.673-.456-1.1l2.697-10.807-10.807 2.697c-.536.133-1.079-.193-1.213-.729-.106-.426.079-.872.456-1.099L46.118 51l-9.548-5.735c-.474-.284-.627-.899-.343-1.372.227-.377.673-.562 1.1-.456l10.807 2.697-2.697-10.807c-.133-.536.193-1.079.729-1.213.426-.106.872.079 1.099.456L53 44.118l5.735-9.548c.284-.474.899-.627 1.372-.343.377.227.562.673.456 1.1l-2.697 10.807 10.807-2.697c.536-.133 1.079.193 1.213.729.106.426-.079.872-.456 1.099L59.882 51l9.548 5.735c.474.284.627.899.343 1.372-.227.377-.673.562-1.1.456l-10.807-2.697 2.697 10.807c.133.536-.193 1.079-.729 1.213-.426.106-.872-.079-1.099-.456L53 57.882z" transform="translate(-140 -219) translate(140 219) rotate(30 53 51)"/>
                <g>
                    <g>
                        <path stroke="#262627" stroke-linecap="round" stroke-linejoin="bevel" stroke-width="3" d="M49.96 14.988C42.502 4.996 34.176 0 24.98 0 15.782 0 7.456 4.996 0 14.988" transform="translate(-140 -219) translate(140 219) translate(7 15) translate(.463 .694)"/>
                        <path fill="#262627" d="M24.98 4.996c1.075 0 2.125.113 3.136.329.28 5.269 4.64 9.455 9.978 9.455.313 0 .623-.015.929-.043.61 1.632.944 3.4.944 5.247 0 8.277-6.71 14.987-14.987 14.987-8.278 0-14.988-6.71-14.988-14.987 0-8.278 6.71-14.988 14.988-14.988z" transform="translate(-140 -219) translate(140 219) translate(7 15) translate(.463 .694)"/>
                        <g fill="#FFF" transform="translate(-140 -219) translate(140 219) translate(7 15) translate(.463 .694) translate(15.15 18.04)">
                            <circle cx="2.082" cy="2.082" r="2.082"/>
                            <circle cx="10.408" cy="2.082" r="2.082"/>
                            <circle cx="18.735" cy="2.082" r="2.082"/>
                        </g>
                    </g>
                </g>
            </g>
        </g>
    </g>
</svg>
