<svg xmlns="http://www.w3.org/2000/svg" width="25" height="24" viewBox="0 0 25 24">
    <g fill="none" fill-rule="evenodd">
        <g stroke="#262627" stroke-width="1.5">
            <g>
                <g>
                    <path stroke-linecap="round" stroke-linejoin="round" d="M6.6 18.8c.587 1.354 1.912 2.3 3.451 2.3 1.54 0 2.864-.946 3.451-2.3" transform="translate(-161 -3153) translate(161.5 3153) translate(2 1.5)"/>
                    <path d="M.943 16.68c-.342 0-.656-.225-.726-.549-.07-.32.08-.638.387-.775.072-.046.62-.417 1.167-1.538 1.005-2.061 1.216-4.964 1.216-7.037C2.987 3.043 6.122 0 9.977 0c3.847 0 6.977 3.028 6.992 6.755v.026c0 2.073.211 4.975 1.216 7.037.548 1.121 1.095 1.493 1.168 1.538.305.137.457.455.386.775-.07.325-.384.549-.726.549H.943z" transform="translate(-161 -3153) translate(161.5 3153) translate(2 1.5)"/>
                </g>
            </g>
        </g>
    </g>
</svg>
