<svg xmlns="http://www.w3.org/2000/svg" xmlns:xlink="http://www.w3.org/1999/xlink" width="61" height="66" viewBox="0 0 61 66">
    <defs>
        <path id="kk5t1drpmb" d="M0 0.009L5.425 0.009 5.425 6.402 0 6.402z"/>
        <path id="bcx9zzzpjd" d="M0.144 0.365L6.044 0.365 6.044 6.977 0.144 6.977z"/>
        <path id="zthdp3790f" d="M0.067 0.045L43.899 0.045 43.899 43.985 0.067 43.985z"/>
        <filter id="myjvloiwwa">
            <feColorMatrix in="SourceGraphic" values="0 0 0 0 0.731148 0 0 0 0 0.731148 0 0 0 0 0.731148 0 0 0 1.000000 0"/>
        </filter>
    </defs>
    <g fill="none" fill-rule="evenodd">
        <g>
            <g>
                <g filter="url(#myjvloiwwa)" transform="translate(-16 -8087) translate(0 8021) translate(16 66)">
                    <g transform="translate(0 58.56)">
                        <mask id="krbkialbfc" fill="#fff">
                            <use xlink:href="#kk5t1drpmb"/>
                        </mask>
                        <path fill="#2C2D8C" d="M3.041 5.169c.31 0 .555-.055.731-.169.177-.112.264-.286.264-.523v-.02c0-.215-.081-.382-.246-.505-.164-.127-.43-.188-.793-.188H1.37v1.405h1.67zm-.373-2.576c.308 0 .556-.052.738-.16.183-.104.275-.278.275-.515v-.016c0-.216-.08-.379-.237-.492-.16-.112-.387-.169-.686-.169H1.371v1.352h1.297zM0 .009h2.963c.735 0 1.292.189 1.669.566.292.293.436.655.436 1.087v.019c0 .182-.021.344-.067.483-.044.14-.106.267-.181.38-.077.113-.164.211-.265.296-.098.086-.205.159-.32.22.369.138.66.328.872.569.213.242.318.575.318 1v.02c0 .292-.056.546-.168.766-.113.22-.275.402-.484.549-.209.145-.462.256-.757.329-.294.072-.622.11-.98.11H0V.008z" mask="url(#krbkialbfc)"/>
                    </g>
                    <path fill="#2C2D8C" d="M10.174 65.063c-.858 0-1.534-.239-2.027-.713-.493-.475-.741-1.184-.741-2.127v-3.654h1.407v3.616c0 .523.122.918.366 1.185.244.263.581.396 1.014.396.433 0 .77-.129 1.014-.385.242-.254.365-.637.365-1.151v-3.66h1.407v3.607c0 .486-.066.909-.198 1.27-.129.357-.317.658-.56.899-.244.24-.54.42-.886.54-.347.117-.734.177-1.16.177M18.403 65.072c-.5 0-.954-.082-1.365-.247-.412-.162-.765-.393-1.06-.685-.296-.291-.524-.64-.69-1.042-.164-.4-.247-.839-.247-1.314v-.019c0-.455.085-.884.252-1.283.168-.399.401-.75.7-1.05.297-.301.65-.539 1.057-.712.41-.174.857-.26 1.344-.26.287 0 .547.02.78.058.235.04.453.095.654.17.201.071.388.163.565.273.178.11.347.236.513.375l-.886 1.068c-.122-.103-.244-.194-.366-.274-.121-.078-.25-.146-.378-.2-.133-.055-.273-.097-.426-.13-.151-.028-.32-.044-.502-.044-.257 0-.495.054-.716.16-.223.107-.417.251-.586.431-.168.179-.297.39-.391.631-.095.242-.142.498-.142.775v.017c0 .293.047.563.142.81.094.248.228.464.4.646.174.183.378.324.613.425.235.102.494.153.78.153.523 0 .966-.132 1.326-.389v-.918h-1.418v-1.215h2.779v2.775c-.329.282-.72.519-1.175.718-.453.198-.972.297-1.557.297M26.068 65.063c-.86 0-1.535-.239-2.029-.713-.493-.475-.74-1.184-.74-2.127v-3.654h1.407v3.616c0 .523.122.918.365 1.185.244.263.582.396 1.015.396.431 0 .769-.129 1.014-.385.24-.254.364-.637.364-1.151v-3.66h1.407v3.607c0 .486-.065.909-.197 1.27-.13.357-.318.658-.561.899-.244.24-.54.42-.886.54-.347.117-.734.177-1.16.177M31.219 58.569L32.515 58.569 35.512 62.506 35.512 58.569 36.9 58.569 36.9 64.963 35.702 64.963 32.607 60.898 32.607 64.963 31.219 64.963zM39.347 58.569L44.215 58.569 44.215 59.838 40.753 59.838 40.753 61.218 43.804 61.218 43.804 62.487 40.753 62.487 40.753 64.963 39.347 64.963zM46.252 58.569L47.549 58.569 50.545 62.506 50.545 58.569 51.932 58.569 51.932 64.963 50.736 64.963 47.641 60.898 47.641 64.963 46.252 64.963z"/>
                    <g transform="translate(53.953 58.095)">
                        <mask id="a7z0l2r26e" fill="#fff">
                            <use xlink:href="#bcx9zzzpjd"/>
                        </mask>
                        <path fill="#2C2D8C" d="M3.423 6.977c-.47 0-.905-.087-1.308-.257-.4-.17-.746-.402-1.04-.697-.292-.296-.52-.645-.684-1.047C.226 4.573.144 4.143.144 3.69V3.67c0-.455.082-.884.247-1.283.164-.399.392-.75.685-1.05.293-.301.642-.538 1.05-.712.408-.174.86-.26 1.352-.26.298 0 .57.025.818.073.245.049.47.114.67.2.202.086.387.189.557.31.17.122.329.257.474.403l-.893 1.03c-.252-.224-.505-.4-.762-.53-.261-.126-.552-.19-.874-.19-.267 0-.515.052-.744.156-.228.103-.424.246-.589.43-.164.181-.292.393-.385.633-.09.24-.136.497-.136.773v.017c0 .274.045.533.136.777.093.243.219.455.38.64.162.183.356.327.586.434.227.105.478.16.752.16.365 0 .675-.068.928-.202.253-.133.503-.316.754-.548l.894.905c-.164.175-.335.335-.51.473-.178.142-.371.26-.581.362-.21.1-.44.178-.691.23-.248.051-.529.076-.839.076" mask="url(#a7z0l2r26e)"/>
                    </g>
                    <g transform="translate(7.907 .42)">
                        <mask id="1h0i2hxnvg" fill="#fff">
                            <use xlink:href="#zthdp3790f"/>
                        </mask>
                        <path fill="#2C2D8C" d="M36.102 24.485v2.06h5.322c-2.077 8.982-10.044 15.378-19.387 15.378-10.977 0-19.908-8.93-19.908-19.909 0-3.426.87-6.653 2.4-9.47h19.353c2.31 0 4.188 1.878 4.188 4.189 0 2.31-1.877 4.187-4.188 4.187v.001h-5.283v2.06h6.604c2.311 0 4.189 1.88 4.189 4.19 0 2.31-1.878 4.188-4.189 4.188H16.13V14.95h-2.062v18.468h11.136c3.448 0 6.25-2.803 6.25-6.248 0-2.488-1.465-4.635-3.574-5.64 1.375-1.147 2.253-2.872 2.253-4.798 0-3.447-2.803-6.25-6.25-6.25H5.824c3.613-5.066 9.532-8.378 16.213-8.378 5.317 0 10.317 2.07 14.077 5.831l1.457-1.457C33.423 2.33 27.905.044 22.037.044 9.923.044.067 9.9.067 22.014c0 12.116 9.856 21.971 21.97 21.971 10.764 0 19.875-7.697 21.66-18.3l.202-1.2h-7.797z" mask="url(#1h0i2hxnvg)"/>
                    </g>
                </g>
            </g>
        </g>
    </g>
</svg>
