<svg xmlns="http://www.w3.org/2000/svg" width="140" height="64" viewBox="0 0 140 64">
    <g fill="none" fill-rule="evenodd">
        <g>
            <g>
                <path fill="#524E4C" d="M136 0c2.21 0 4 1.79 4 4v20c-4.418 0-8 3.582-8 8s3.582 8 8 8v20c0 2.21-1.79 4-4 4H4c-2.21 0-4-1.79-4-4V40c4.418 0 8-3.582 8-8s-3.582-8-8-8V4c0-2.21 1.79-4 4-4h132z" transform="translate(-24 -1712) translate(24 1712)"/>
                <text fill="#FFF" font-family="AppleSDGothicNeo-Bold, Apple SD Gothic Neo" font-size="22" font-weight="bold" letter-spacing="-.314" transform="translate(-24 -1712) translate(24 1712)">
                    <tspan x="29.5" y="42"></tspan>
                </text>
            </g>
        </g>
    </g>
</svg>
